<svg xmlns="http://www.w3.org/2000/svg" viewBox="0 0 95.85 77.15"><title>Ресурс 2</title><g id="Слой_2" data-name="Слой 2"><g id="Слой_13" data-name="Слой 13"><path d="M95.22,41.56h0a.07.07,0,0,0,0,0,1,1,0,0,0-.05-.17,1,1,0,0,0-.06-.19,1,1,0,0,0-.16-.2.81.81,0,0,0-.07-.09h0L67,17.35h0a1,1,0,0,0-.36-.19h0L47.9,11.81h-.08L41.84.91A1,1,0,0,0,41,.39L29.87,0A1,1,0,0,0,29,.44L.17,42.71a1,1,0,0,0-.17.65L2.14,66.74h0v0a1,1,0,0,0,.09.3l0,.07a1,1,0,0,0,.22.27h0l0,0a1,1,0,0,0,.16.1L22,76.69l.14,0a.93.93,0,0,0,.15.05h.12l12,.36h0a1,1,0,0,0,.3,0l22-7a1,1,0,0,0,.48-.33l5.48-7h7.48a1,1,0,0,0,.45-.11L95.31,49.92a1,1,0,0,0,.54-1Zm-26.76,18-2.21-2.75L64.53,42.39a1,1,0,0,0-.05-.16,1,1,0,0,0-.05-.17v0l-6.58-12L66.19,19.9l8.18,23.8ZM57.36,66.2,51,58.3,62.81,44.86l1.5,12.52ZM76.12,42.63,68.87,21.54,91.8,40.91Zm-11.5-24L56.8,28.17,49.16,14.25Zm-2.3,23.72-12.22,14-19.27-54A1,1,0,0,0,30.67,2l9.69.34ZM29.21,3.69l10.9,30.58-15,21.83-7.62-6.22L18,20.16ZM16,52.27l5.55,22-16.86-8Zm2.28.84L24,57.82v0L22.36,69.27ZM40.94,36.6l7.35,20.6L27.51,56.14ZM2,43.54l13.9-20.38L15.5,49.72,3.91,64.1Zm32.2,31.61-10.46-.32-.12-.49,2.34-16,.24-.35a1,1,0,0,0,.36.09l22.65,1.15,6.86,8.57-.36.46ZM65.51,59.08l1.37,1.7H64.17Zm4.69,1.5a1,1,0,0,0,.06-.11l5.89-15.83,17.16-1.89.48,5.7Z"/></g></g></svg>