<svg xmlns="http://www.w3.org/2000/svg" viewBox="0 0 71.85 67.95"><title>Ресурс 4</title><g id="Слой_2" data-name="Слой 2"><g id="Слой_11" data-name="Слой 11"><path d="M25.37,16.94a8.94,8.94,0,1,0,8.94,8.94A9,9,0,0,0,25.37,16.94Zm0,16a7.06,7.06,0,1,1,7.06-7.06A7.07,7.07,0,0,1,25.37,32.94Z"/><circle cx="25.37" cy="25.88" r="3"/><path d="M71.75,33.38l-.06-.73L43.16,4.12l-.73-.06C41.57,4,40.71,4,39.85,4A31.72,31.72,0,0,0,23.46,8.49,12,12,0,1,0,10.24,23.86,32,32,0,1,0,71.85,36C71.85,35.1,71.81,34.23,71.75,33.38ZM4,12a8,8,0,0,1,15.92-1.08A32.35,32.35,0,0,0,12.11,20,8,8,0,0,1,4,12ZM25.78,47.82a14,14,0,0,1,9.29-13.17,7,7,0,1,0,9.42,0,14,14,0,0,1,9.29,13.17,13.86,13.86,0,0,1-6,11.47V54.88h-16v4.42A13.86,13.86,0,0,1,25.78,47.82Zm20,12A5.93,5.93,0,0,1,45,62.69c-.05.1-.1.2-.16.29a6,6,0,0,1-.43.6A6.1,6.1,0,0,1,42.87,65l0,0a6,6,0,0,1-.86.41l-.13.06a5.92,5.92,0,0,1-1.06.28V56.88h5ZM34.68,63l-.16-.29a5.93,5.93,0,0,1-.74-2.86v-3h5v8.87a5.89,5.89,0,0,1-1.06-.29l-.14-.06a5.88,5.88,0,0,1-.86-.42l0,0a6.11,6.11,0,0,1-1.59-1.4h0A5.82,5.82,0,0,1,34.68,63Zm12.45,0a7.91,7.91,0,0,0,.4-1.19,16,16,0,1,0-15.49,0,8.05,8.05,0,0,0,.38,1.15,28,28,0,0,1-9.22-49.48h0A27.87,27.87,0,0,1,41.38,8L67.81,34.42c0,.51,0,1,0,1.53A28,28,0,0,1,47.13,63Z"/></g></g></svg>