<svg xmlns="http://www.w3.org/2000/svg" viewBox="0 0 39.27 66.15"><title>Ресурс 11</title><g id="Слой_2" data-name="Слой 2"><g id="Слой_4" data-name="Слой 4"><path d="M29.6,29.6a7.17,7.17,0,0,0-.77-.44,3.2,3.2,0,0,1-2-2.69c0-.16,0-.3,0-.43V2.23s0,0,0,0a2.19,2.19,0,1,0-4.39,0h0V26.1s0,.09,0,.13,0,.13,0,.2a7.59,7.59,0,0,0,4.39,6.65l.32.19.13.08a15.31,15.31,0,0,1,7.49,11.78,11.41,11.41,0,0,0-1.67.36,7.2,7.2,0,0,1-2.3.32,7.23,7.23,0,0,1-2.3-.32A11,11,0,0,0,25.19,45a11,11,0,0,0-3.34.46,7.19,7.19,0,0,1-2.3.32,7.23,7.23,0,0,1-2.3-.32A11,11,0,0,0,13.9,45a10.94,10.94,0,0,0-3.34.46,7.19,7.19,0,0,1-2.3.32A7.21,7.21,0,0,1,6,45.5a11.88,11.88,0,0,0-1.49-.33A15.31,15.31,0,0,1,12,33.31l.1-.06.28-.16a7.59,7.59,0,0,0,4.39-6.63V2.24s0,0,0,0a2.2,2.2,0,0,0-4.39,0h0V26.47a3.2,3.2,0,0,1-2,2.68,7.64,7.64,0,0,0-.67.38,19.64,19.64,0,1,0,19.82.07ZM23.71,61.19a1.08,1.08,0,0,0,.45-.86,1.1,1.1,0,0,0-2.2,0,1.08,1.08,0,0,0,1,1.07,15.21,15.21,0,0,1-2.55.33,1.12,1.12,0,1,0-.63,0h-.09a15.26,15.26,0,0,1-15-12.57l.27.07a10.88,10.88,0,0,0,3.34.46,10.88,10.88,0,0,0,3.34-.46,7.22,7.22,0,0,1,2.3-.32,7.26,7.26,0,0,1,2.3.32,10.88,10.88,0,0,0,3.34.46,10.87,10.87,0,0,0,3.34-.46,7.22,7.22,0,0,1,2.3-.32,7.28,7.28,0,0,1,2.3.32,10.87,10.87,0,0,0,3.34.46,10.88,10.88,0,0,0,3.34-.46l.46-.12A15.27,15.27,0,0,1,23.71,61.19Z"/><circle cx="19.79" cy="37.47" r="1.1"/><path d="M22.41,52.61a1.1,1.1,0,1,0,1.1,1.1A1.1,1.1,0,0,0,22.41,52.61Z"/><circle cx="20.23" cy="56.43" r="1.1"/><circle cx="17.46" cy="60.47" r="1.1"/><circle cx="19.79" cy="24.66" r="1.1"/><circle cx="19.79" cy="16.2" r="1.1"/></g></g></svg>