<svg xmlns="http://www.w3.org/2000/svg" viewBox="0 0 56 63.96"><title>Ресурс 6</title><g id="Слой_2" data-name="Слой 2"><g id="Слой_9" data-name="Слой 9"><path d="M28,32"/><path d="M55.47,36.25,41.55,28.79H40.36l-1.48-2.66a6,6,0,0,0-3.38-2.78V21.61a4.81,4.81,0,0,0-.56-2.19l5.24-3.81,3.4-14.38A1,1,0,1,0,41.63.77L38.4,14.43,34.85,17a7.43,7.43,0,0,0,.65-3,7.77,7.77,0,0,0-.15-1.5A4.93,4.93,0,0,0,36,10a5,5,0,0,0-8.22-3.8A5,5,0,0,0,20.58,13a7.59,7.59,0,0,0-.08,1,7.42,7.42,0,0,0,.65,3l-3.55-2.58L14.37.77a1,1,0,1,0-1.95.46l3.4,14.38,5.24,3.81a4.78,4.78,0,0,0-.56,2.19v1.74a6,6,0,0,0-3.38,2.78l-1.48,2.66H14.44L.53,36.25A1,1,0,0,0,1,38.13,1,1,0,0,0,1.47,38l12.87-6.9-11.71,21a3.94,3.94,0,0,0-.3,4,3.59,3.59,0,0,0,3.28,1.58l.59,0a30.43,30.43,0,0,0,5.3-1.08l-1.25,6.2a1,1,0,0,0,.78,1.18l.2,0a1,1,0,0,0,1-.8l1.47-7.3A31.68,31.68,0,0,0,22,51.43a8.08,8.08,0,0,0,6,2.47,8.09,8.09,0,0,0,6-2.47,31.56,31.56,0,0,0,8.32,4.43l1.47,7.3a1,1,0,0,0,1,.8l.2,0a1,1,0,0,0,.78-1.18l-1.25-6.2a30.86,30.86,0,0,0,5.3,1.08l.6,0a3.59,3.59,0,0,0,3.28-1.58,3.94,3.94,0,0,0-.3-4l-11.71-21L54.52,38a1,1,0,0,0,.47.12,1,1,0,0,0,.47-1.88ZM37.13,27.11l.94,1.68H35.38a4.78,4.78,0,0,0,.12-1V25.52A4,4,0,0,1,37.13,27.11Zm-18.27,0a4,4,0,0,1,1.63-1.6v2.28a4.78,4.78,0,0,0,.12,1H17.93ZM12,54.31A30.92,30.92,0,0,1,6,55.66c-1,.09-1.72-.13-2-.58a2.14,2.14,0,0,1,.32-2L16.81,30.79h4.73a6.57,6.57,0,0,0,1.65,1.54,5.83,5.83,0,0,0-2.7,4.76v1.48l-6.06,3.5Zm2.2-.8,2-10.15,4.28-2.47V47.7a5.22,5.22,0,0,0,.42,2A29.35,29.35,0,0,1,14.17,53.51Zm20.91-3.78a5.21,5.21,0,0,0,.42-2V40.89l4.28,2.47,2,10.15A29.43,29.43,0,0,1,35.08,49.72Zm16.53,3.38a2.14,2.14,0,0,1,.32,2c-.26.44-1,.67-2,.58A30.89,30.89,0,0,1,44,54.31L41.56,42.08l-6.06-3.5V37.09a5.83,5.83,0,0,0-2.7-4.76,6.6,6.6,0,0,0,1.65-1.54h4.73Z"/></g></g></svg>