<svg xmlns="http://www.w3.org/2000/svg" viewBox="0 0 60 80"><title>Ресурс 12</title><g id="Слой_2" data-name="Слой 2"><g id="Слой_2-2" data-name="Слой 2"><path d="M50.44,27.78c.15,0,.22-.08.25-.24a.24.24,0,0,0-.24-.22.23.23,0,0,0,0,.46Z"/><path d="M28.88,2.48a.24.24,0,0,0,.22-.24.23.23,0,0,0-.46,0C28.63,2.38,28.72,2.45,28.88,2.48Z"/><path d="M30.74,2.47c.15,0,.22-.1.23-.26A.24.24,0,0,0,30.72,2a.21.21,0,0,0-.22.23A.22.22,0,0,0,30.74,2.47Z"/><path d="M52.34,27.78c.14,0,.23-.1.22-.25a.23.23,0,0,0-.46,0C52.1,27.7,52.19,27.77,52.34,27.78Z"/><path d="M8.22,28.25a.21.21,0,0,0-.24.21.22.22,0,0,0,.21.25c.15,0,.23-.08.25-.22S8.37,28.26,8.22,28.25Z"/><path d="M10.09,28.71c.15,0,.22-.1.23-.24s-.1-.23-.25-.22a.23.23,0,0,0,0,.46Z"/><path d="M24.18,3.41c.12,0,.22-.09.22-.24a.23.23,0,0,0-.46,0C23.93,3.31,24,3.39,24.18,3.41Z"/><path d="M26.06,3.41c.14,0,.23-.1.22-.25a.23.23,0,0,0-.46,0C25.82,3.32,25.91,3.4,26.06,3.41Z"/><path d="M27.91,3.4a.22.22,0,0,0,.24-.23c0-.15-.09-.22-.23-.24s-.23.09-.23.24A.21.21,0,0,0,27.91,3.4Z"/><path d="M29.79,3.4A.22.22,0,0,0,30,3.18c0-.15-.09-.22-.23-.24s-.23.1-.23.24A.21.21,0,0,0,29.79,3.4Z"/><path d="M31.66,3.4c.15,0,.23-.08.25-.22a.23.23,0,0,0-.23-.24.21.21,0,0,0-.24.21A.21.21,0,0,0,31.66,3.4Z"/><path d="M33.55,3.4c.15,0,.22-.09.24-.23s-.1-.23-.24-.23a.21.21,0,0,0-.22.22A.21.21,0,0,0,33.55,3.4Z"/><path d="M35.42,3.41c.15,0,.24-.09.24-.23a.22.22,0,0,0-.24-.23.21.21,0,0,0-.23.22C35.19,3.31,35.28,3.38,35.42,3.41Z"/><path d="M49.5,28.25a.23.23,0,0,0,0,.46c.15,0,.22-.09.24-.23S49.65,28.25,49.5,28.25Z"/><path d="M51.38,28.25a.23.23,0,0,0,0,.46c.15,0,.22-.09.24-.23S51.53,28.25,51.38,28.25Z"/><path d="M21.35,4.34c.15,0,.22-.09.24-.23s-.09-.23-.24-.23a.21.21,0,0,0-.23.22A.22.22,0,0,0,21.35,4.34Z"/><path d="M23.23,4.35c.14,0,.23-.1.23-.24a.23.23,0,0,0-.46,0C23,4.25,23.09,4.33,23.23,4.35Z"/><path d="M25.13,4.35c.12,0,.22-.1.21-.25a.23.23,0,0,0-.46,0C24.88,4.26,25,4.33,25.13,4.35Z"/><path d="M27,4.35c.14,0,.24-.09.24-.24A.22.22,0,0,0,27,3.88a.21.21,0,0,0-.22.22C26.75,4.25,26.84,4.32,27,4.35Z"/><path d="M28.86,4.34c.15,0,.22-.09.24-.24a.24.24,0,0,0-.24-.22.23.23,0,0,0,0,.46Z"/><path d="M31,4.12c0-.15-.08-.24-.23-.24a.23.23,0,0,0,0,.46C30.87,4.35,30.95,4.26,31,4.12Z"/><path d="M32.6,4.34a.23.23,0,0,0,.25-.22c0-.14-.09-.24-.24-.24a.22.22,0,0,0-.23.23A.21.21,0,0,0,32.6,4.34Z"/><path d="M34.49,4.34c.15,0,.22-.09.24-.23s-.1-.23-.24-.23a.23.23,0,0,0,0,.46Z"/><path d="M36.37,4.35c.14,0,.23-.1.23-.24a.23.23,0,0,0-.46,0C36.14,4.25,36.23,4.33,36.37,4.35Z"/><path d="M38.25,4.34c.15,0,.22-.1.23-.24s-.1-.23-.25-.22a.23.23,0,0,0,0,.46Z"/><path d="M7.51,29.43c0-.15-.08-.24-.23-.24a.23.23,0,0,0,0,.46C7.41,29.66,7.49,29.57,7.51,29.43Z"/><path d="M8.92,29.42c0,.15.1.22.24.24s.23-.1.22-.25a.23.23,0,0,0-.46,0Z"/><path d="M18.53,5.28c.15,0,.22-.08.25-.22s-.09-.24-.24-.24a.23.23,0,0,0,0,.46Z"/><path d="M20.42,5.29c.13,0,.23-.08.23-.23a.23.23,0,0,0-.46,0C20.17,5.18,20.26,5.26,20.42,5.29Z"/><path d="M22.27,5.28a.22.22,0,0,0,.25-.22c0-.15-.08-.23-.22-.25s-.24.09-.24.23A.22.22,0,0,0,22.27,5.28Z"/><path d="M24.17,5.28c.15,0,.22-.1.24-.26a.24.24,0,0,0-.25-.21.23.23,0,0,0,0,.46Z"/><path d="M26,5.28c.15,0,.22-.09.25-.23s-.09-.24-.24-.24a.23.23,0,0,0,0,.46Z"/><path d="M27.92,4.82a.21.21,0,0,0-.22.22.22.22,0,0,0,.23.24c.15,0,.22-.09.24-.23S28.06,4.81,27.92,4.82Z"/><path d="M29.78,5.28A.22.22,0,0,0,30,5.06c0-.15-.08-.23-.22-.25s-.24.09-.24.23A.21.21,0,0,0,29.78,5.28Z"/><path d="M31.67,5.28a.22.22,0,0,0,.24-.23c0-.15-.09-.22-.24-.24a.23.23,0,0,0-.23.25A.21.21,0,0,0,31.67,5.28Z"/><path d="M33.55,5.28c.14,0,.24-.09.24-.24a.23.23,0,0,0-.46,0C33.32,5.19,33.41,5.26,33.55,5.28Z"/><path d="M35.44,4.82a.21.21,0,0,0-.23.23c0,.15.1.22.24.23s.23-.1.22-.25A.21.21,0,0,0,35.44,4.82Z"/><path d="M37.33,5.29c.12,0,.22-.1.21-.25a.23.23,0,0,0-.46,0C37.08,5.19,37.17,5.27,37.33,5.29Z"/><path d="M39.18,5.28a.23.23,0,0,0,.25-.23c0-.14-.09-.24-.24-.23a.23.23,0,0,0,0,.46Z"/><path d="M17.6,6.22c.15,0,.22-.09.24-.25s-.1-.22-.25-.21a.23.23,0,0,0,0,.46Z"/><path d="M19.48,6.22c.13,0,.23-.09.23-.24a.23.23,0,0,0-.46,0C19.24,6.12,19.33,6.2,19.48,6.22Z"/><path d="M21.34,6.22A.22.22,0,0,0,21.58,6c0-.15-.09-.22-.23-.24s-.23.1-.23.24A.21.21,0,0,0,21.34,6.22Z"/><path d="M23.23,6.22c.14,0,.23-.09.23-.24A.23.23,0,0,0,23,6C23,6.13,23.09,6.2,23.23,6.22Z"/><path d="M25.1,6.22c.15,0,.22-.08.25-.22s-.09-.24-.24-.24a.23.23,0,0,0,0,.46Z"/><path d="M27,6.22A.21.21,0,0,0,27.22,6c0-.15-.08-.23-.23-.26s-.23.08-.23.23A.21.21,0,0,0,27,6.22Z"/><path d="M28.86,6.22A.22.22,0,0,0,29.09,6c0-.15-.1-.22-.24-.24s-.23.1-.22.25A.21.21,0,0,0,28.86,6.22Z"/><path d="M30.73,5.75a.23.23,0,0,0,0,.46c.15,0,.22-.09.24-.23S30.88,5.75,30.73,5.75Z"/><path d="M32.62,5.75a.21.21,0,0,0-.23.21.21.21,0,0,0,.21.25c.15,0,.23-.08.25-.22A.23.23,0,0,0,32.62,5.75Z"/><path d="M34.5,6.22c.15,0,.22-.09.24-.24s-.1-.23-.25-.22a.21.21,0,0,0-.22.23A.22.22,0,0,0,34.5,6.22Z"/><path d="M36.37,6.22c.15,0,.22-.09.24-.23s-.1-.23-.25-.23a.21.21,0,0,0-.22.22A.22.22,0,0,0,36.37,6.22Z"/><path d="M38.24,6.22c.14,0,.24-.09.24-.24a.21.21,0,0,0-.24-.23A.21.21,0,0,0,38,6C38,6.12,38.1,6.2,38.24,6.22Z"/><path d="M40.14,6.22c.12,0,.22-.09.22-.24a.23.23,0,0,0-.46,0C39.89,6.13,40,6.2,40.14,6.22Z"/><path d="M42,6.22c.15,0,.22-.1.23-.26A.24.24,0,0,0,42,5.75a.23.23,0,0,0,0,.46Z"/><path d="M16.66,7.16c.14,0,.24-.09.24-.24a.23.23,0,0,0-.46,0C16.42,7.06,16.52,7.14,16.66,7.16Z"/><path d="M18.54,7.15c.15,0,.22-.09.24-.24s-.1-.23-.25-.23a.23.23,0,0,0,0,.46Z"/><path d="M20.41,7.16c.14,0,.24-.09.23-.24a.21.21,0,0,0-.22-.23.22.22,0,0,0-.24.22C20.18,7.06,20.27,7.14,20.41,7.16Z"/><path d="M22.3,7.15c.15,0,.22-.1.23-.24s-.1-.23-.25-.22a.23.23,0,0,0,0,.46Z"/><path d="M24.17,7.15c.15,0,.22-.1.24-.24s-.1-.23-.25-.22a.23.23,0,0,0,0,.46Z"/><path d="M26.05,7.15a.21.21,0,0,0,.23-.22.23.23,0,0,0-.22-.25c-.14,0-.24.09-.24.24A.22.22,0,0,0,26.05,7.15Z"/><path d="M27.92,7.15a.21.21,0,0,0,.24-.23c0-.15-.09-.22-.24-.24a.23.23,0,0,0-.22.25A.21.21,0,0,0,27.92,7.15Z"/><path d="M29.81,6.69a.23.23,0,0,0,0,.46c.15,0,.23-.08.25-.22A.23.23,0,0,0,29.81,6.69Z"/><path d="M31.68,6.69a.23.23,0,0,0,0,.46c.15,0,.22-.08.25-.23S31.83,6.69,31.68,6.69Z"/><path d="M33.55,7.15a.21.21,0,0,0,.24-.23c0-.15-.09-.22-.24-.24s-.23.1-.23.25A.21.21,0,0,0,33.55,7.15Z"/><path d="M35.44,6.69a.21.21,0,0,0-.23.23c0,.15.1.22.24.23s.23-.1.22-.25A.21.21,0,0,0,35.44,6.69Z"/><path d="M37.31,7.15c.15,0,.22-.1.24-.24s-.1-.23-.25-.22a.23.23,0,0,0,0,.46Z"/><path d="M39.18,7.15c.15,0,.22-.08.25-.23s-.09-.24-.24-.24a.23.23,0,0,0,0,.46Z"/><path d="M41,7.15a.22.22,0,0,0,.25-.22c0-.15-.08-.23-.22-.25s-.24.08-.24.23A.21.21,0,0,0,41,7.15Z"/><path d="M42.92,7.15a.22.22,0,0,0,.25-.22c0-.15-.08-.23-.22-.25s-.24.08-.24.23A.21.21,0,0,0,42.92,7.15Z"/><path d="M50.45,29.19a.23.23,0,0,0,0,.46c.15,0,.23-.08.25-.22A.23.23,0,0,0,50.45,29.19Z"/><path d="M52.33,29.65a.21.21,0,0,0,.22-.22c0-.15-.09-.22-.23-.25s-.24.09-.24.24A.21.21,0,0,0,52.33,29.65Z"/><path d="M8,30.35c0,.15.09.22.25.24a.24.24,0,0,0,.22-.24.23.23,0,0,0-.46,0Z"/><path d="M15.74,8.1A.24.24,0,0,0,16,7.85a.23.23,0,0,0-.46,0C15.49,8,15.58,8.08,15.74,8.1Z"/><path d="M17.37,7.86a.23.23,0,0,0,.46,0c0-.15-.09-.22-.23-.25S17.37,7.71,17.37,7.86Z"/><path d="M19.48,8.09c.15,0,.22-.09.24-.24a.23.23,0,0,0-.25-.22.23.23,0,0,0,0,.46Z"/><path d="M21.34,8.09a.22.22,0,0,0,.24-.23c0-.15-.09-.22-.23-.24s-.23.09-.23.24A.21.21,0,0,0,21.34,8.09Z"/><path d="M23.22,8.09c.15,0,.22-.09.25-.25s-.09-.22-.24-.22a.23.23,0,0,0,0,.46Z"/><path d="M25.11,8.09c.15,0,.22-.1.23-.26a.24.24,0,0,0-.25-.21.23.23,0,0,0,0,.46Z"/><path d="M27,7.63a.23.23,0,0,0,0,.46c.15,0,.22-.09.24-.24S27.12,7.62,27,7.63Z"/><path d="M28.86,8.09c.15,0,.22-.09.24-.24s-.1-.23-.25-.23a.23.23,0,0,0,0,.46Z"/><path d="M30.51,7.87a.21.21,0,0,0,.22.23c.15,0,.22-.08.25-.23s-.09-.24-.24-.24A.21.21,0,0,0,30.51,7.87Z"/><path d="M32.6,8.09a.22.22,0,0,0,.24-.23c0-.15-.09-.22-.23-.24s-.23.09-.23.24A.21.21,0,0,0,32.6,8.09Z"/><path d="M34.49,7.63a.23.23,0,0,0,0,.46c.15,0,.22-.08.25-.23S34.64,7.63,34.49,7.63Z"/><path d="M36.36,8.09c.15,0,.22-.08.25-.22s-.09-.24-.24-.24a.23.23,0,0,0,0,.46Z"/><path d="M38.24,7.63a.23.23,0,0,0,0,.46c.15,0,.22-.09.24-.25S38.39,7.63,38.24,7.63Z"/><path d="M40.13,8.09c.15,0,.22-.1.24-.24a.23.23,0,0,0-.25-.22.21.21,0,0,0-.22.23A.22.22,0,0,0,40.13,8.09Z"/><path d="M42,8.09c.15,0,.22-.1.23-.24s-.1-.23-.25-.22a.23.23,0,0,0,0,.46Z"/><path d="M43.86,8.09a.22.22,0,0,0,.25-.22c0-.15-.08-.23-.22-.25s-.24.08-.24.23A.21.21,0,0,0,43.86,8.09Z"/><path d="M51.38,30.13a.23.23,0,0,0,0,.46c.15,0,.22-.09.24-.23S51.53,30.13,51.38,30.13Z"/><path d="M7.26,31.53c.15,0,.23-.08.25-.23a.24.24,0,0,0-.23-.23.23.23,0,0,0,0,.46Z"/><path d="M14.8,9A.24.24,0,0,0,15,8.79a.23.23,0,0,0-.46,0C14.55,8.94,14.65,9,14.8,9Z"/><path d="M16.67,8.57a.22.22,0,0,0-.24.23c0,.15.09.22.25.24a.23.23,0,0,0,.21-.25A.21.21,0,0,0,16.67,8.57Z"/><path d="M18.52,9c.15,0,.22-.08.25-.22s-.09-.24-.24-.24a.23.23,0,0,0,0,.46Z"/><path d="M20.4,9a.23.23,0,0,0,.25-.22c0-.14-.09-.24-.24-.24a.23.23,0,0,0,0,.46Z"/><path d="M22.29,8.57a.22.22,0,0,0-.23.24.21.21,0,0,0,.22.23c.15,0,.22-.08.25-.22S22.44,8.57,22.29,8.57Z"/><path d="M24.16,9c.15,0,.22-.08.25-.22s-.09-.24-.24-.24a.22.22,0,0,0-.23.24A.21.21,0,0,0,24.16,9Z"/><path d="M26,9c.15,0,.22-.09.24-.23s-.1-.23-.24-.23A.23.23,0,0,0,26,9Z"/><path d="M27.93,8.57a.23.23,0,0,0,0,.46c.15,0,.22-.08.25-.22S28.08,8.57,27.93,8.57Z"/><path d="M29.81,8.57a.23.23,0,0,0,0,.46c.15,0,.23-.08.25-.22S30,8.57,29.81,8.57Z"/><path d="M31.67,8.57a.23.23,0,0,0,0,.46c.15,0,.22-.09.24-.24S31.81,8.56,31.67,8.57Z"/><path d="M33.56,8.57a.22.22,0,0,0-.24.23c0,.15.1.22.24.23s.23-.1.22-.25A.21.21,0,0,0,33.56,8.57Z"/><path d="M35.43,9c.14,0,.24-.09.24-.24a.23.23,0,0,0-.46,0C35.19,8.93,35.29,9,35.43,9Z"/><path d="M37.31,9c.15,0,.22-.1.23-.24s-.1-.23-.25-.22a.23.23,0,0,0,0,.46Z"/><path d="M39.19,9c.15,0,.22-.1.23-.24s-.1-.23-.25-.22a.23.23,0,0,0,0,.46Z"/><path d="M41.3,8.79A.23.23,0,0,0,41,8.57a.23.23,0,0,0,0,.46C41.21,9,41.29,8.93,41.3,8.79Z"/><path d="M42.93,8.57a.23.23,0,0,0,0,.46c.15,0,.22-.1.23-.24S43.07,8.56,42.93,8.57Z"/><path d="M44.82,9c.15,0,.22-.1.23-.24s-.1-.23-.25-.22a.23.23,0,0,0,0,.46Z"/><path d="M9.13,31.53a.22.22,0,0,0,.25-.22c0-.15-.08-.22-.22-.25s-.24.08-.24.23A.21.21,0,0,0,9.13,31.53Z"/><path d="M50.47,31.06a.22.22,0,0,0-.25.21c0,.15.08.23.22.25a.23.23,0,0,0,.25-.23A.22.22,0,0,0,50.47,31.06Z"/><path d="M13.83,10c.15,0,.22-.08.25-.24a.23.23,0,0,0-.24-.22.23.23,0,0,0,0,.46Z"/><path d="M15.71,10c.15,0,.22-.08.25-.24a.23.23,0,0,0-.24-.22.22.22,0,0,0-.23.24A.21.21,0,0,0,15.71,10Z"/><path d="M17.59,10c.15,0,.22-.08.25-.24a.23.23,0,0,0-.24-.22.23.23,0,0,0,0,.46Z"/><path d="M19.48,9.5a.23.23,0,0,0,0,.46c.15,0,.22-.08.25-.24S19.62,9.5,19.48,9.5Z"/><path d="M21.34,10a.22.22,0,0,0,.24-.23c0-.15-.09-.22-.23-.24s-.23.09-.23.24A.21.21,0,0,0,21.34,10Z"/><path d="M23.22,10c.15,0,.22-.09.25-.24s-.09-.22-.24-.22a.23.23,0,0,0,0,.46Z"/><path d="M24.88,9.71a.21.21,0,0,0,.21.25c.15,0,.23-.08.25-.22s-.08-.24-.23-.24A.21.21,0,0,0,24.88,9.71Z"/><path d="M27,10a.21.21,0,0,0,.23-.22c0-.15-.08-.22-.22-.25s-.24.09-.24.24A.21.21,0,0,0,27,10Z"/><path d="M28.87,10c.13,0,.23-.09.23-.24a.23.23,0,0,0-.46,0C28.62,9.87,28.71,9.95,28.87,10Z"/><path d="M30.73,10c.15,0,.22-.08.25-.22s-.09-.24-.24-.24a.22.22,0,0,0-.23.24A.21.21,0,0,0,30.73,10Z"/><path d="M32.85,9.73a.21.21,0,0,0-.22-.23.22.22,0,0,0-.24.22c0,.15.09.22.23.24S32.85,9.88,32.85,9.73Z"/><path d="M34.5,10c.15,0,.22-.1.23-.24s-.1-.23-.25-.22a.21.21,0,0,0-.22.23A.22.22,0,0,0,34.5,10Z"/><path d="M36.14,9.74a.23.23,0,0,0,.46,0c0-.15-.09-.22-.23-.25S36.14,9.59,36.14,9.74Z"/><path d="M38.25,10c.15,0,.22-.1.23-.25a.24.24,0,0,0-.25-.21.23.23,0,0,0,0,.46Z"/><path d="M40.11,10c.15,0,.22-.08.25-.22s-.09-.24-.24-.24a.23.23,0,0,0,0,.46Z"/><path d="M41.77,9.71A.22.22,0,0,0,42,10c.15,0,.22-.08.25-.22s-.08-.24-.23-.24A.22.22,0,0,0,41.77,9.71Z"/><path d="M43.87,10a.21.21,0,0,0,.24-.23c0-.15-.09-.22-.23-.24s-.23.1-.23.25A.21.21,0,0,0,43.87,10Z"/><path d="M45.75,10c.14,0,.24-.09.24-.24a.23.23,0,0,0-.46,0C45.52,9.87,45.61,9.95,45.75,10Z"/><path d="M52.32,31.53c.15,0,.22-.08.25-.23s-.09-.24-.24-.24a.23.23,0,0,0,0,.46Z"/><path d="M12.92,10.91c.14,0,.23-.1.22-.25a.23.23,0,0,0-.46,0C12.68,10.82,12.77,10.89,12.92,10.91Z"/><path d="M14.79,10.9a.21.21,0,0,0,.23-.22c0-.15-.08-.22-.22-.25s-.24.09-.24.24A.22.22,0,0,0,14.79,10.9Z"/><path d="M8.21,32a.23.23,0,0,0,0,.46c.15,0,.22-.08.25-.23S8.36,32,8.21,32Z"/><path d="M51.38,32a.23.23,0,0,0,0,.46c.15,0,.22-.09.24-.24A.23.23,0,0,0,51.38,32Z"/><path d="M20.4,10.9c.15,0,.22-.08.25-.22s-.09-.24-.24-.24a.23.23,0,0,0,0,.46Z"/><path d="M22.29,10.44a.21.21,0,0,0-.22.22.22.22,0,0,0,.22.24c.15,0,.22-.09.24-.23A.23.23,0,0,0,22.29,10.44Z"/><path d="M24.17,10.44a.23.23,0,0,0,0,.46.23.23,0,0,0,.25-.23C24.39,10.53,24.32,10.44,24.17,10.44Z"/><path d="M25.82,10.66c0,.15.08.23.22.25a.23.23,0,0,0,.24-.23.21.21,0,0,0-.21-.24A.22.22,0,0,0,25.82,10.66Z"/><path d="M27.93,10.91c.14,0,.23-.1.22-.25a.23.23,0,0,0-.46,0C27.69,10.82,27.79,10.9,27.93,10.91Z"/><path d="M29.81,10.44a.21.21,0,0,0-.24.22c0,.15.09.22.23.24s.24-.09.23-.24A.21.21,0,0,0,29.81,10.44Z"/><path d="M31.66,10.9a.22.22,0,0,0,.25-.21c0-.15-.08-.23-.22-.25s-.24.08-.24.23A.21.21,0,0,0,31.66,10.9Z"/><path d="M33.55,10.91c.14,0,.24-.09.24-.24a.23.23,0,0,0-.46,0C33.32,10.81,33.41,10.89,33.55,10.91Z"/><path d="M35.44,10.9a.21.21,0,0,0,.22-.22c0-.15-.08-.22-.23-.25s-.24.09-.24.24A.21.21,0,0,0,35.44,10.9Z"/><path d="M37.3,10.91c.14,0,.24-.09.24-.24a.23.23,0,0,0-.46,0C37.07,10.81,37.16,10.89,37.3,10.91Z"/><path d="M39,10.67a.22.22,0,0,0,.24.23.21.21,0,0,0,.23-.22c0-.15-.08-.22-.22-.25S39,10.52,39,10.67Z"/><path d="M7.27,33.4a.22.22,0,0,0,.23-.24c0-.15-.1-.22-.25-.23a.24.24,0,0,0-.21.25A.21.21,0,0,0,7.27,33.4Z"/><path d="M52.32,32.94a.23.23,0,0,0,0,.46c.15,0,.22-.09.24-.23S52.47,32.94,52.32,32.94Z"/><path d="M44.83,10.44a.22.22,0,0,0-.24.23c0,.15.09.22.23.24s.23-.1.23-.25A.21.21,0,0,0,44.83,10.44Z"/><path d="M46.7,10.91c.14,0,.23-.1.23-.25a.23.23,0,0,0-.46,0C46.46,10.82,46.55,10.89,46.7,10.91Z"/><path d="M12,11.84c.15,0,.22-.09.24-.23s-.09-.23-.24-.23a.23.23,0,0,0,0,.46Z"/><path d="M13.61,11.6a.22.22,0,0,0,.22.24c.15,0,.22-.09.24-.23s-.09-.23-.24-.23A.21.21,0,0,0,13.61,11.6Z"/><path d="M21.36,11.38a.22.22,0,0,0-.24.23c0,.15.09.22.25.24s.22-.1.21-.25A.21.21,0,0,0,21.36,11.38Z"/><path d="M23,11.59c0,.15.08.23.23.26s.23-.08.23-.23a.23.23,0,0,0-.46,0Z"/><path d="M25.11,11.84c.15,0,.22-.1.23-.24s-.1-.23-.25-.22a.23.23,0,0,0,0,.46Z"/><path d="M27,11.38a.22.22,0,0,0-.23.24.21.21,0,0,0,.22.22c.15,0,.22-.09.25-.24A.24.24,0,0,0,27,11.38Z"/><path d="M28.87,11.85c.13,0,.23-.09.23-.24a.23.23,0,0,0-.46,0C28.62,11.74,28.71,11.82,28.87,11.85Z"/><path d="M30.72,11.84a.22.22,0,0,0,.25-.21c0-.15-.08-.23-.22-.25s-.24.08-.24.23A.21.21,0,0,0,30.72,11.84Z"/><path d="M32.61,11.85c.14,0,.23-.09.23-.24a.23.23,0,0,0-.46,0C32.38,11.75,32.47,11.83,32.61,11.85Z"/><path d="M34.49,11.38a.23.23,0,0,0,0,.46c.15,0,.22-.09.24-.23A.23.23,0,0,0,34.49,11.38Z"/><path d="M36.36,11.84c.15,0,.22-.08.25-.23s-.09-.24-.24-.24a.23.23,0,0,0,0,.46Z"/><path d="M38,11.61a.23.23,0,0,0,.46,0c0-.15-.08-.22-.23-.25S38,11.46,38,11.61Z"/><path d="M45.73,11.84a.22.22,0,0,0,.25-.21c0-.15-.08-.23-.22-.25s-.24.08-.24.23A.21.21,0,0,0,45.73,11.84Z"/><path d="M47.64,11.84a.21.21,0,0,0,.23-.22c0-.15-.08-.23-.24-.25s-.23.09-.23.24A.22.22,0,0,0,47.64,11.84Z"/><path d="M11,12.78a.22.22,0,0,0,.23-.24c0-.15-.1-.22-.24-.23s-.23.1-.22.25A.22.22,0,0,0,11,12.78Z"/><path d="M12.91,12.32a.23.23,0,0,0,0,.46c.15,0,.23-.08.25-.22S13.06,12.32,12.91,12.32Z"/><path d="M23.94,12.53a.21.21,0,0,0,.22.24c.15,0,.22-.09.24-.23a.23.23,0,0,0-.24-.23A.21.21,0,0,0,23.94,12.53Z"/><path d="M26.05,12.78c.15,0,.22-.1.23-.24a.23.23,0,0,0-.25-.22.23.23,0,0,0,0,.46Z"/><path d="M27.93,12.78c.14,0,.23-.1.23-.24a.21.21,0,0,0-.22-.22.22.22,0,0,0-.24.23C27.69,12.69,27.78,12.76,27.93,12.78Z"/><path d="M29.8,12.31c-.14,0-.23.1-.23.24a.23.23,0,0,0,.46,0C30,12.4,29.94,12.33,29.8,12.31Z"/><path d="M31.67,12.32a.21.21,0,0,0-.22.22c0,.15.09.22.23.25s.24-.09.24-.24A.22.22,0,0,0,31.67,12.32Z"/><path d="M33.56,12.78c.15,0,.22-.1.23-.24a.23.23,0,0,0-.25-.22.23.23,0,0,0,0,.46Z"/><path d="M35.43,12.78c.15,0,.22-.09.24-.25a.24.24,0,0,0-.25-.22.23.23,0,0,0,0,.46Z"/><path d="M46.69,12.78c.14,0,.24-.09.24-.24a.23.23,0,0,0-.46,0C46.46,12.68,46.55,12.76,46.69,12.78Z"/><path d="M48.57,12.78c.15,0,.22-.1.24-.24a.23.23,0,0,0-.25-.22.21.21,0,0,0-.22.23A.22.22,0,0,0,48.57,12.78Z"/><path d="M10.1,13.72c.14,0,.23-.1.22-.25a.21.21,0,0,0-.23-.22.22.22,0,0,0-.24.23C9.86,13.63,10,13.71,10.1,13.72Z"/><path d="M12,13.25a.22.22,0,0,0-.25.21c0,.15.08.23.23.26s.23-.08.23-.23A.21.21,0,0,0,12,13.25Z"/><path d="M26.75,13.49a.21.21,0,0,0,.22.23c.15,0,.22-.08.25-.22s-.09-.24-.24-.24A.21.21,0,0,0,26.75,13.49Z"/><path d="M28.87,13.25a.23.23,0,0,0,0,.46c.15,0,.23-.08.25-.22S29,13.26,28.87,13.25Z"/><path d="M30.72,13.25a.23.23,0,0,0,0,.46c.15,0,.22-.1.23-.24S30.87,13.24,30.72,13.25Z"/><path d="M32.61,13.72c.15,0,.22-.09.24-.25a.24.24,0,0,0-.25-.21.21.21,0,0,0-.22.22A.22.22,0,0,0,32.61,13.72Z"/><path d="M47.63,13.72c.15,0,.22-.09.24-.24a.23.23,0,0,0-.25-.23.23.23,0,0,0,0,.46Z"/><path d="M49.51,13.72c.14,0,.23-.09.23-.24a.21.21,0,0,0-.22-.23.22.22,0,0,0-.24.22C49.27,13.63,49.37,13.7,49.51,13.72Z"/><path d="M9.16,14.66c.14,0,.23-.1.22-.25a.23.23,0,0,0-.46,0C8.92,14.57,9,14.64,9.16,14.66Z"/><path d="M11,14.66c.14,0,.23-.1.22-.25a.23.23,0,0,0-.46,0C10.8,14.57,10.89,14.64,11,14.66Z"/><path d="M48.58,14.19a.21.21,0,0,0-.23.23c0,.15.1.22.24.23s.23-.1.22-.25A.21.21,0,0,0,48.58,14.19Z"/><path d="M50.46,14.66c.14,0,.23-.1.22-.25a.23.23,0,0,0-.46,0C50.22,14.57,50.31,14.64,50.46,14.66Z"/><path d="M10.08,15.59c.15,0,.23-.08.25-.22s-.09-.24-.24-.24a.22.22,0,0,0-.23.24A.21.21,0,0,0,10.08,15.59Z"/><path d="M49.51,15.59a.21.21,0,0,0,.24-.23c0-.15-.09-.22-.24-.24s-.23.1-.23.25A.21.21,0,0,0,49.51,15.59Z"/><path d="M9.15,16.53c.15,0,.22-.09.24-.23s-.1-.23-.25-.23a.23.23,0,0,0,0,.46Z"/><path d="M11,16.53a.21.21,0,0,0,.24-.23c0-.15-.09-.22-.25-.25s-.22.09-.22.24A.21.21,0,0,0,11,16.53Z"/><path d="M48.57,16.53c.15,0,.22-.09.24-.23a.23.23,0,0,0-.25-.23.23.23,0,0,0,0,.46Z"/><path d="M50.45,16.53c.15,0,.22-.09.24-.23s-.1-.23-.24-.23a.23.23,0,0,0,0,.46Z"/><path d="M8.22,17.47c.15,0,.22-.1.23-.24S8.35,17,8.2,17a.23.23,0,0,0,0,.46Z"/><path d="M10.08,17.47c.14,0,.24-.09.24-.23a.23.23,0,0,0-.46,0C9.85,17.37,9.94,17.44,10.08,17.47Z"/><path d="M49.5,17a.23.23,0,0,0,0,.46c.15,0,.22-.09.24-.23S49.65,17,49.5,17Z"/><path d="M51.39,17.47c.14,0,.24-.09.23-.24a.23.23,0,0,0-.46,0C51.15,17.37,51.24,17.45,51.39,17.47Z"/><path d="M9.14,18.4a.22.22,0,0,0,.24-.23c0-.15-.09-.22-.23-.24s-.23.1-.23.25A.21.21,0,0,0,9.14,18.4Z"/><path d="M11,17.94a.23.23,0,0,0,0,.46c.15,0,.22-.08.25-.24A.24.24,0,0,0,11,17.94Z"/><path d="M48.56,18.41c.14,0,.24-.09.24-.23a.23.23,0,0,0-.46,0A.23.23,0,0,0,48.56,18.41Z"/><path d="M50.22,18.17c0,.15.1.22.24.24a.23.23,0,0,0,.22-.25.23.23,0,0,0-.46,0Z"/><path d="M8.22,19.34c.15,0,.22-.1.23-.24s-.1-.23-.25-.22a.23.23,0,0,0,0,.46Z"/><path d="M10.09,18.88a.23.23,0,0,0,0,.46c.15,0,.22-.08.25-.23S10.24,18.88,10.09,18.88Z"/><path d="M49.5,18.87c-.14,0-.23.1-.22.25a.23.23,0,0,0,.46,0C49.74,19,49.64,18.89,49.5,18.87Z"/><path d="M51.38,19.34c.15,0,.22-.08.25-.23s-.09-.24-.24-.24a.23.23,0,0,0,0,.46Z"/><path d="M7.26,20.28a.23.23,0,0,0,.25-.22c0-.14-.09-.24-.23-.24a.22.22,0,0,0-.23.24A.21.21,0,0,0,7.26,20.28Z"/><path d="M9.15,20.28c.15,0,.22-.09.24-.25a.23.23,0,0,0-.25-.21.23.23,0,0,0,0,.46Z"/><path d="M11,19.81c-.15,0-.24.08-.24.23a.23.23,0,0,0,.46,0C11.27,19.92,11.18,19.84,11,19.81Z"/><path d="M48.81,20c0-.14-.09-.24-.24-.23a.23.23,0,0,0,0,.46C48.71,20.28,48.79,20.19,48.81,20Z"/><path d="M50.46,20.28c.14,0,.23-.1.22-.25a.23.23,0,0,0-.46,0C50.22,20.2,50.31,20.27,50.46,20.28Z"/><path d="M52.34,20.28c.14,0,.23-.1.22-.25a.23.23,0,0,0-.46,0C52.1,20.2,52.19,20.27,52.34,20.28Z"/><path d="M8.22,21.22c.15,0,.22-.1.23-.24s-.1-.23-.25-.22a.23.23,0,0,0,0,.46Z"/><path d="M10.09,21.22c.15,0,.22-.1.24-.24s-.1-.23-.25-.22a.23.23,0,0,0,0,.46Z"/><path d="M49.28,21c0,.15.09.22.23.24s.23-.09.23-.24a.21.21,0,0,0-.22-.23A.22.22,0,0,0,49.28,21Z"/><path d="M51.38,21.22a.22.22,0,0,0,.24-.23c0-.15-.09-.22-.23-.24s-.23.1-.23.25A.21.21,0,0,0,51.38,21.22Z"/><path d="M7.26,22.16c.15,0,.24-.08.24-.23a.21.21,0,0,0-.21-.24A.22.22,0,0,0,7,21.9C7,22.05,7.12,22.13,7.26,22.16Z"/><path d="M9.14,22.15c.15,0,.23-.08.25-.22s-.09-.24-.24-.24a.22.22,0,0,0-.23.24A.21.21,0,0,0,9.14,22.15Z"/><path d="M10.8,21.92a.21.21,0,0,0,.23.23c.15,0,.22-.1.24-.24s-.1-.23-.25-.22A.21.21,0,0,0,10.8,21.92Z"/><path d="M48.57,21.69a.23.23,0,0,0,0,.46c.15,0,.22-.08.25-.23S48.72,21.69,48.57,21.69Z"/><path d="M50.44,22.15a.23.23,0,0,0,.25-.23c0-.14-.09-.24-.24-.23a.23.23,0,0,0,0,.46Z"/><path d="M52.32,22.16c.14,0,.24-.09.24-.23a.23.23,0,0,0-.46,0C52.09,22.06,52.18,22.13,52.32,22.16Z"/><path d="M8.2,23.09a.21.21,0,0,0,.24-.22c0-.15-.09-.22-.23-.24s-.23.09-.23.24A.21.21,0,0,0,8.2,23.09Z"/><path d="M9.86,22.84c0,.15.08.22.22.25s.24-.08.25-.23a.23.23,0,0,0-.46,0Z"/><path d="M49.52,23.09a.21.21,0,0,0,.23-.22c0-.15-.08-.22-.22-.25s-.24.09-.24.24A.21.21,0,0,0,49.52,23.09Z"/><path d="M51.38,23.09a.22.22,0,0,0,.24-.23c0-.15-.09-.22-.23-.24s-.23.1-.23.24A.21.21,0,0,0,51.38,23.09Z"/><path d="M7.28,23.56a.23.23,0,0,0,0,.46c.15,0,.23-.08.25-.22S7.43,23.57,7.28,23.56Z"/><path d="M8.92,23.79a.21.21,0,0,0,.23.24c.15,0,.22-.09.24-.23s-.1-.23-.25-.23A.21.21,0,0,0,8.92,23.79Z"/><path d="M11,23.56A.23.23,0,0,0,11,24c.15,0,.22-.09.24-.24S11.17,23.56,11,23.56Z"/><path d="M48.8,23.79a.23.23,0,0,0-.46,0c0,.15.09.22.23.24S48.81,23.94,48.8,23.79Z"/><path d="M50.68,23.8a.23.23,0,0,0-.46,0c0,.15.08.23.22.25A.23.23,0,0,0,50.68,23.8Z"/><path d="M52.33,24c.15,0,.22-.1.23-.24s-.1-.23-.25-.22a.21.21,0,0,0-.22.23A.22.22,0,0,0,52.33,24Z"/><path d="M8.45,24.73a.23.23,0,0,0-.46,0c0,.15.09.22.23.24S8.45,24.88,8.45,24.73Z"/><path d="M10.09,25c.15,0,.22-.1.23-.24a.23.23,0,0,0-.25-.22.23.23,0,0,0,0,.46Z"/><path d="M49.52,25a.21.21,0,0,0,.22-.22c0-.15-.08-.22-.23-.25s-.24.09-.24.24A.21.21,0,0,0,49.52,25Z"/><path d="M51.39,24.5a.23.23,0,0,0,0,.46.23.23,0,0,0,.25-.22C51.61,24.6,51.54,24.5,51.39,24.5Z"/><path d="M7,25.67c0,.15.09.22.24.24s.23-.1.23-.25a.23.23,0,0,0-.46,0Z"/><path d="M9.15,25.91c.14,0,.24-.09.24-.24a.23.23,0,0,0-.46,0C8.92,25.81,9,25.88,9.15,25.91Z"/><path d="M50.43,25.9c.15,0,.23-.08.25-.22s-.08-.24-.23-.24a.23.23,0,0,0,0,.46Z"/><path d="M52.34,25.44a.22.22,0,0,0-.24.22c0,.15.09.22.23.24s.23-.09.23-.24A.21.21,0,0,0,52.34,25.44Z"/><path d="M8.21,26.85c.14,0,.24-.09.24-.24a.23.23,0,0,0-.46,0A.23.23,0,0,0,8.21,26.85Z"/><path d="M10.09,26.38a.23.23,0,0,0,0,.46c.15,0,.22-.09.24-.23A.23.23,0,0,0,10.09,26.38Z"/><path d="M49.5,26.38a.23.23,0,0,0,0,.46c.15,0,.22-.09.24-.24S49.65,26.37,49.5,26.38Z"/><path d="M51.39,26.84a.21.21,0,0,0,.22-.22c0-.15-.08-.22-.23-.25s-.24.09-.23.24A.22.22,0,0,0,51.39,26.84Z"/><path d="M7.26,27.78c.15,0,.22-.08.25-.23s-.09-.24-.24-.24a.23.23,0,0,0,0,.46Z"/><path d="M9.14,27.78c.15,0,.22-.08.25-.23s-.09-.24-.24-.24a.21.21,0,0,0-.23.24A.21.21,0,0,0,9.14,27.78Z"/><path d="M34.4,13.62c.1-.07.31,0,.33-.16s-.12-.22-.26-.2a.22.22,0,0,0-.21.23C34.26,13.58,34.32,13.67,34.4,13.62Z"/><path d="M37.17,12.69l.23-.12s.13,0,.12-.11a.19.19,0,0,0-.12-.13.21.21,0,0,0-.24,0,.22.22,0,0,0-.08.23S37.11,12.68,37.17,12.69Z"/><path d="M48.58,25.44c-.09,0-.06,0-.06.1s0,.31.11.35.18-.1.17-.23A.23.23,0,0,0,48.58,25.44Z"/><path d="M53.25,25v-.48c-.14,0-.22.11-.22.25A.23.23,0,0,0,53.25,25Z"/><path d="M53.26,32.46V32c-.15.05-.24.12-.23.26A.22.22,0,0,0,53.26,32.46Z"/><path d="M11,25.44a.22.22,0,0,0-.17.19.22.22,0,0,0,.16.25c.08-.11.05-.24.1-.36S11,25.43,11,25.44Z"/><path d="M22.7,39.66l-.23-.25a1,1,0,0,0-.22-.15L22,39.18a3.43,3.43,0,0,0-.93-.09,9.26,9.26,0,0,0-1,.06c-.33,0-.67.08-1,.12l-.47,0h-.49l-2-.1h-.48a4.8,4.8,0,0,0-.49,0,2.5,2.5,0,0,0-.93.26,3,3,0,0,0-.65.43,3.4,3.4,0,0,0-.41.41,2.92,2.92,0,0,0-.3.4l.15.12a3.92,3.92,0,0,1,.37-.28A3.85,3.85,0,0,1,14.45,40a2.11,2.11,0,0,1,.72-.09,4.2,4.2,0,0,1,.43,0l.48.06.64.07v0a1.94,1.94,0,0,0,3.86,0,1.41,1.41,0,0,0,0-.21l.6-.1a4.14,4.14,0,0,1,.76-.06l.14,0,.09,0,.29.19a1.37,1.37,0,0,1,.23.17l.19.15.26.23.09.09.11-.07a2.91,2.91,0,0,0-.23-.44A3.53,3.53,0,0,0,22.7,39.66Zm-5,.93a.41.41,0,1,1,.41-.41A.41.41,0,0,1,17.68,40.59Z"/><path d="M44.81,39.92a2.87,2.87,0,0,0-.61-.4,2.33,2.33,0,0,0-.87-.24c-.18,0-.32,0-.47,0h-.45l-1.91.09H40l-.44,0c-.31,0-.63-.09-.94-.12a8.49,8.49,0,0,0-.92-.06,3.23,3.23,0,0,0-.87.08l-.22.08a1,1,0,0,0-.21.14l-.22.23a3.1,3.1,0,0,0-.34.44,2.72,2.72,0,0,0-.22.42l.1.06.08-.08.24-.22.18-.14a1.34,1.34,0,0,1,.22-.16l.27-.17.09,0,.13,0a3.82,3.82,0,0,1,.72.05l.56.1a1.25,1.25,0,0,0,0,.19,1.83,1.83,0,0,0,3.64,0v0l.6-.07.45-.06a4,4,0,0,1,.4,0A2,2,0,0,1,44,40a4.31,4.31,0,0,1,1.35.76l.14-.11a2.69,2.69,0,0,0-.28-.38A3.15,3.15,0,0,0,44.81,39.92Zm-5.67.7a.42.42,0,1,1,.42-.42A.42.42,0,0,1,39.14,40.62Z"/><path d="M60,36c0-.06,0-.14,0-.19l0-.15-.09-.34a9.91,9.91,0,0,0-1-2.25,5,5,0,0,0-.33-.5c-.12-.16-.24-.33-.35-.46l-.17-.2-.08-.1,0,0h0l0,0-.08-.07a1.37,1.37,0,0,0-.74-.32,2.41,2.41,0,0,0-1.21.25A5.59,5.59,0,0,0,55,32c-.21.14-.4.28-.57.41,0-2.45,0-5,0-7.54C54.44.89,30.09,0,30.09,0H29.5S5.15.89,5.15,24.9c0,2.66.12,5.24.28,7.75,0,.18,0,.35,0,.53L5,32.85a5.58,5.58,0,0,0-.83-.46A2.42,2.42,0,0,0,3,32.14a1.37,1.37,0,0,0-.74.32l-.08.07,0,0h0l0,0-.08.1-.17.2a5.61,5.61,0,0,0-.35.46,5.1,5.1,0,0,0-.33.49,9.83,9.83,0,0,0-1,2.24L0,36.41l0,.15c0,.05,0,.13,0,.19a3.43,3.43,0,0,0,0,.69,8.33,8.33,0,0,0,.33,1.28A7.91,7.91,0,0,0,.9,40l.09.15,0,.08,0,.06.16.28a5.63,5.63,0,0,1,.22.56,9.58,9.58,0,0,1,.47,2.45c0,.24,0,.42,0,.66l.05.34.07.32a10.73,10.73,0,0,0,.36,1.22c.07.2.15.39.23.58l.26.55c.14.33.28.69.39,1a7.17,7.17,0,0,1,.27,1,1.51,1.51,0,0,1,0,.21.31.31,0,0,0,0,.06v0s0-.06,0,.07h0v.22a1.67,1.67,0,0,0,0,.2c0,.09.05.19.08.28a5,5,0,0,0,1,1.7,2.84,2.84,0,0,0,1.48.86,2.82,2.82,0,0,0,1,0c.07.37.14.74.22,1.11.8,3.76,1,7.31,2.82,10.68A30.42,30.42,0,0,0,16.13,72a9.87,9.87,0,0,0,9.2,7.89c1.44.11,7.49.11,8.93,0a9.76,9.76,0,0,0,9-7.08,31.81,31.81,0,0,0,6.66-8.18c1.79-3.37,2-6.92,2.82-10.68l-.14,0q.18-.76.33-1.53v0l.11,0s0-.09,0-.22a3,3,0,0,0,.69,0,2.85,2.85,0,0,0,1.48-.87,5,5,0,0,0,1-1.71c0-.09.06-.19.08-.28a1.77,1.77,0,0,0,0-.2v-.22h0c0-.13,0,0,0-.07v0a.31.31,0,0,0,0-.06,1.58,1.58,0,0,1,0-.21,7,7,0,0,1,.27-1c.12-.34.25-.71.39-1l.26-.55c.08-.19.16-.39.23-.59a10.69,10.69,0,0,0,.36-1.23l.07-.32.05-.34c0-.24,0-.42.05-.66a9.69,9.69,0,0,1,.47-2.46,5.69,5.69,0,0,1,.22-.56l.15-.29,0-.06,0-.08.09-.15a8,8,0,0,0,.52-1.24,8.37,8.37,0,0,0,.32-1.29A3.57,3.57,0,0,0,60,36ZM6.34,24.17c0-.23,0-.45,0-.67s0-.26,0-.39v0a.22.22,0,0,0,.16-.19.21.21,0,0,0-.13-.22s0-.1,0-.15,0-.27,0-.4,0-.37.07-.56,0-.26.06-.4.05-.35.08-.53,0-.26.07-.39.06-.34.1-.5L7,19.36c0-.16.07-.33.11-.49l.09-.36,0-.11h.08a.23.23,0,0,0,.24-.23c0-.13-.09-.25-.2-.23l.08-.27.14-.46.11-.34.16-.44.13-.33.17-.43,0-.1.07,0a.23.23,0,0,0,.24-.24c0-.09-.06-.2-.12-.21l.09-.2.14-.3.2-.41L8.89,14l.21-.4.15-.27.22-.38.16-.26.24-.37L10,12l.16-.23h0a.2.2,0,0,0,.09-.17l.13-.19.26-.35.17-.22h0a.33.33,0,0,0,.16,0,.23.23,0,0,0,.21-.25.2.2,0,0,0-.07-.17l.14-.17.29-.33.14-.16A.26.26,0,0,0,12,10a.23.23,0,0,0,.22-.24.21.21,0,0,0-.15-.22l0,0,.17-.18L12.56,9l.13-.12a.2.2,0,0,0,.22.16c.15,0,.22-.09.24-.23A.25.25,0,0,0,13,8.58l.06-.06.17-.16.33-.3.1-.08a.21.21,0,0,0,.19.11.23.23,0,0,0,.24-.22A.24.24,0,0,0,14,7.69l.07-.06.17-.13.35-.28.12-.09.05,0c.14,0,.23-.07.24-.23l.13-.09.15-.11.38-.26.15-.1.39-.25L16.33,6l.4-.25.13-.08.42-.24.12-.07.43-.23.1-.06.45-.23.09,0,.47-.23.07,0,.48-.22h0a.13.13,0,0,0,.12-.05l.43-.19h0c.69-.29,1.38-.54,2-.77a.2.2,0,0,0,.24.08.21.21,0,0,0,.17-.21c.94-.3,1.82-.53,2.63-.72h0c.58-.13,1.12-.23,1.61-.32a.2.2,0,0,0,0,.07.22.22,0,0,0,.22.25.22.22,0,0,0,.24-.23.2.2,0,0,0-.06-.16L27.69,2h0L28,2h0l.25,0h0l.22,0h0l.19,0h1.94l.16,0h0l.19,0h0l.22,0h0l.26,0h0l.83.12a.25.25,0,0,0,0,.14.22.22,0,0,0,.23.24.21.21,0,0,0,.23-.17.33.33,0,0,0,0-.15,31.41,31.41,0,0,1,4.25,1,.18.18,0,0,0,.06.14.22.22,0,0,0,.25.06.19.19,0,0,0,.09-.07c.66.22,1.34.47,2,.76h0l.44.19a.21.21,0,0,0,.13.06l.48.22.07,0,.47.23,0,0h-.08a.23.23,0,0,0,0,.46c.15,0,.22-.09.24-.23a.26.26,0,0,0-.11-.19h0l.45.23.1.06.44.24.12.06.42.24.13.08.41.25.14.09.4.26.15.1.38.26.15.11.13.1c0,.18.09.23.28.2l.12.09.36.28.16.13.07.06a.21.21,0,0,0-.05.25.23.23,0,0,0,.26.14A.22.22,0,0,0,46,8l.08.07.33.3.17.16.07.06a.21.21,0,0,0-.13.2.22.22,0,0,0,.22.25.22.22,0,0,0,.23-.15L47,9l.31.32.17.18,0,0a.2.2,0,0,0-.14.21.23.23,0,0,0,.22.24.26.26,0,0,0,.22-.12L48,10l.29.33.15.17a.22.22,0,0,0-.06.11.21.21,0,0,0,.09.25.21.21,0,0,0,.26,0h0l.17.22.26.35.15.21a.18.18,0,0,0,.1.14l.17.24.16.24.24.38.16.25.22.39.15.27.21.4.15.28.2.41.14.3.1.22,0,0a.21.21,0,0,0-.06.25.23.23,0,0,0,.24.15h0l0,.1.17.43.12.33.15.44.11.34.14.46.08.27h0a.23.23,0,0,0,.1.46l0,0,0,.12.1.36.11.49.08.38c0,.17.06.34.1.51s.05.26.07.39.06.35.08.53l.06.4c0,.18,0,.37.06.55s0,.26,0,.4v.17c-.16.15-.16.26,0,.37v.06c0,.13,0,.26,0,.39s0,.45,0,.67,0,.23,0,.34c0,.34,0,.69,0,1v.84h0c-.13,0-.21.09-.21.23a.2.2,0,0,0,.19.22h.06c0,.48,0,1,0,1.44h0a.23.23,0,0,0,0,.45h0q0,.72,0,1.44h0c-.13,0-.21.1-.21.23a.2.2,0,0,0,.19.22h.05q0,1.26,0,2.5l-3,5.08-.18,0c0-.2,0-.37-.07-.51-.2-1.24-1.27-2-2.6-2.47a3.21,3.21,0,0,1,2.75.39s-.31-3.58-2.56-4c-1.4-.26-2.62,1.72-5.34,2.15s-9.67.25-10.22,3v.93h0v0s0,.07,0,.1l-.08,0a6.53,6.53,0,0,0-2.44-.57,6.42,6.42,0,0,0-2.43.57l0,0,0-.9c-.46-2.77-7.39-2.85-10.07-3.38S13.12,31,11.72,31.23c-2.24.33-2.66,3.88-2.66,3.88A3.5,3.5,0,0,1,12.3,35c-1.66.43-3.12,1.22-3.35,2.69H8.89L6.6,33.22c0-.31,0-.61-.06-.92h0a.24.24,0,0,0,0-.21q0-.78-.09-1.57c.18-.13.18-.24,0-.39q0-.71-.06-1.44a.24.24,0,0,0,.21-.23.23.23,0,0,0-.15-.22H6.35q0-.71,0-1.43h.05a.2.2,0,0,0,.2-.22.2.2,0,0,0-.2-.24H6.31q0-.42,0-.84c0-.21,0-.4,0-.6h0a.23.23,0,0,0,0-.45h0C6.33,24.39,6.33,24.28,6.34,24.17ZM47.68,45.8a4.6,4.6,0,0,1-3.15,1.85,27.46,27.46,0,0,1-4,.35,7.66,7.66,0,0,1-4.21-.9,9,9,0,0,1-3.2-8.92,15,15,0,0,1,2.11-.64,41.37,41.37,0,0,1,6.49-.5,13.75,13.75,0,0,0,3.85-1.19c1.59.31,3.12.93,3.31,2.17S49.53,43.28,47.68,45.8ZM22.63,47.08a7.65,7.65,0,0,1-4.21.9,27.47,27.47,0,0,1-4-.35,4.6,4.6,0,0,1-3.15-1.85c-1.85-2.51-1.38-6.6-1.19-7.79.22-1.42,2.18-2,4-2.29a11.83,11.83,0,0,0,3.33,1.12,41.3,41.3,0,0,1,6.44.74,14.77,14.77,0,0,1,2,.7A9,9,0,0,1,22.63,47.08ZM37.94,69.59c-.85.75-1.44.84-2.64-1.44s-9.88-2.18-11,0-1.79,2.19-2.64,1.44S18.47,67,20.31,64.22a33.54,33.54,0,0,1,5.87-.69c.62,0,6.62,0,7.24,0a33.56,33.56,0,0,1,5.87.69C41.12,67,38.79,68.85,37.94,69.59ZM52.6,52.42h0Zm6.69-15.85A6.08,6.08,0,0,1,59,37.76a7.55,7.55,0,0,1-.46,1.15l-.07.13,0,.06,0,0,0,0-.15.29c-.09.22-.19.45-.25.66a10.16,10.16,0,0,0-.51,2.63,5,5,0,0,1-.06.61l-.05.28-.08.29A10,10,0,0,1,57,45.1c-.07.19-.15.36-.23.53l-.28.51c-.19.38-.34.73-.49,1.09a9.63,9.63,0,0,0-.38,1.08,2.14,2.14,0,0,0-.07.31c0,.07,0,.13,0,.2v.1s0,.07,0-.05h0V49l0,0c0,.06,0,.12-.08.19a3.55,3.55,0,0,1-.93,1.23,1.49,1.49,0,0,1-.91.4,1.23,1.23,0,0,1-.46-.09c.06-2.31.14-6.24.16-6.32l-.07.37L51.86,52c-.8,4.28-1.1,8.29-3.17,12a28.61,28.61,0,0,1-5.44,6.74,5.25,5.25,0,0,0-.43-.88c-.55-.89-.35-2.68-.7-3.63a4.36,4.36,0,0,1,.1-2.34h.6l-.15-1s-1.2-4-3.23-4.72l-.52-.18-.6-.2a28.4,28.4,0,0,0-6-1.19c.57-.58,1.75,0,2.43-.37s.94-1.57.94-1.57a3,3,0,0,0-.46-2.1l.54.48.37.33.4.37.42.4.42.42a5,5,0,0,1,.37.44c.11.14.22.3.33.45l.32.45c.1.15.2.28.31.41a3.52,3.52,0,0,0,.29.33,2.21,2.21,0,0,0,.24.23l.23.18s0-.1-.12-.27-.17-.4-.29-.69-.26-.62-.43-1a5.58,5.58,0,0,0-.32-.55,2.23,2.23,0,0,0-.19-.26l-.1-.12,0-.06-.07-.07-.46-.44L37,53.33c-.16-.12-.33-.22-.48-.32s-.31-.18-.45-.25a5.92,5.92,0,0,0-.71-.31,1.78,1.78,0,0,0-.28-.08.57.57,0,0,0,.06.14,2.72,2.72,0,0,1,.12,2.27c-.57,1-.6,1-1.22.76a2.4,2.4,0,0,0-2.33.84,1.86,1.86,0,0,1-.22.25,2.85,2.85,0,0,1-2,.74h-.16a2.86,2.86,0,0,1-1.93-.71,1.91,1.91,0,0,1-.26-.29,2.4,2.4,0,0,0-2.33-.84c-.62.22-.65.22-1.22-.76a2.85,2.85,0,0,1,.13-2.35l0-.09a1.42,1.42,0,0,0-.29.07,6.09,6.09,0,0,0-.71.31l-.45.25c-.15.1-.32.2-.48.32l-.48.38-.46.44-.07.07,0,.06-.1.12a2.13,2.13,0,0,0-.19.26,5.12,5.12,0,0,0-.32.55c-.18.36-.31.69-.43,1s-.22.52-.29.69l-.12.27.23-.18a2.31,2.31,0,0,0,.24-.23,3.63,3.63,0,0,0,.29-.33c.1-.12.21-.26.31-.41l.32-.45c.11-.15.22-.32.33-.45a4.74,4.74,0,0,1,.37-.44l.42-.42.42-.4c.14-.12.27-.25.4-.37l.37-.33.39-.34a3,3,0,0,0-.28,2s.24,1.22.95,1.57,1.93-.24,2.48.42a25.46,25.46,0,0,0-6.15,1.4l-.3.12-.3.25A15.12,15.12,0,0,0,16.92,63l-.15,1h.6a4.36,4.36,0,0,1,.1,2.34c-.35.94-.15,2.73-.7,3.63a4.85,4.85,0,0,0-.24.44,27.79,27.79,0,0,1-5-6.3c-2.07-3.75-2.37-7.77-3.17-12L7.07,44.82,7,44.45c0,.1.12,4.8.18,6.93L7,51.46a1.19,1.19,0,0,1-.55.13,1.48,1.48,0,0,1-.91-.39A3.56,3.56,0,0,1,4.63,50c0-.06,0-.12-.08-.19l0,0v-.13h0v0c0-.06,0-.13,0-.19a2.11,2.11,0,0,0-.07-.31A9.47,9.47,0,0,0,4,48c-.15-.36-.3-.7-.49-1.08l-.28-.51c-.08-.17-.16-.35-.23-.53a10,10,0,0,1-.38-1.14l-.08-.29-.05-.28a4.59,4.59,0,0,1-.06-.61A10.09,10.09,0,0,0,2,40.91c-.06-.21-.16-.44-.25-.65L1.58,40l0,0,0,0,0-.06-.07-.13A7.33,7.33,0,0,1,1,38.54a6,6,0,0,1-.26-1.18,2.85,2.85,0,0,1,0-.55s0-.07,0-.12l0-.14h0V36.5l0-.07,0-.14a7.59,7.59,0,0,1,1-2,4.2,4.2,0,0,1,.32-.4,4,4,0,0,1,.33-.36l.19-.18.09-.09,0,0h0v0h0a.3.3,0,0,1,.17,0,1.41,1.41,0,0,1,.58.22,4.41,4.41,0,0,1,.58.44,8.38,8.38,0,0,1,.89.92c.23.27.4.51.51.66a5.31,5.31,0,0,1,.64,1.45l.25-1.65,1.86,3.6.47,0c-.16,2-.12,5.25,1.53,7.5a5.51,5.51,0,0,0,3.77,2.22,29.8,29.8,0,0,0,4.35.37A9.06,9.06,0,0,0,23.25,48a9.27,9.27,0,0,0,3.06-4c0,.28,0,.56,0,.84-.07,3-.14,6.06-.14,6.06s.29-3,.58-6l.53-5.18a2.26,2.26,0,0,1,2.15-1.26h.05a2.37,2.37,0,0,1,2.19,1.24l.53,5.21.58,6s-.07-3-.14-6.06q0-.44,0-.88a9.31,9.31,0,0,0,3.08,4A9.06,9.06,0,0,0,40.49,49h0a29.82,29.82,0,0,0,4.35-.37,5.51,5.51,0,0,0,3.77-2.22c1.52-2.07,1.68-5,1.57-7l.62-.06,2.44-4.08-.16,1.61s.65-1.25,1.16-2h0l.16-.23c.11-.16.28-.39.51-.66a8.38,8.38,0,0,1,.89-.92,4.35,4.35,0,0,1,.58-.45,1.43,1.43,0,0,1,.58-.23.29.29,0,0,1,.17,0h0v0h0l0,0,.09.09.19.18a3.83,3.83,0,0,1,.33.36,4.05,4.05,0,0,1,.32.4,7.67,7.67,0,0,1,1,2l0,.14,0,.07v.05h0l0,.14s0,.08,0,.12A2.68,2.68,0,0,1,59.29,36.57Z"/><path d="M56.71,34.6c-.91.64-2.35,2.49-2.35,3.61s-.27,2.71.28,2.9.95,1.78.57,2.1a2.8,2.8,0,0,0-.75,2c.11.69-.13,1.52.15,1.36.65-.37.34-1.58.72-1.79s2.16-3.1.91-4.22a2.69,2.69,0,0,1-.72-2.64c.83-1,1.88.05,1.88.05a1.81,1.81,0,0,0-1.54-1.09,3.41,3.41,0,0,1,.44-.73c.5-.59,1.15-1.41,2.33.51C58.64,36.68,57.62,34,56.71,34.6Z"/><path d="M14,55.92l-.45-.13-.44-.16-.44-.18-.44-.2a8.18,8.18,0,0,1-.85-.47,8.46,8.46,0,0,0,.62.77c.11.13.23.24.34.36s.24.24.36.35l.38.34.4.32a5.18,5.18,0,0,0,.46.32l1.32,7.43.09-7.91v-.36l-.48-.27C14.61,56.06,14.31,56,14,55.92Z"/><path d="M47.23,55.45l-.44.18-.44.16-.45.13c-.29.09-.6.13-.89.2l-.48.27v.36l.09,7.91,1.32-7.43a5.41,5.41,0,0,0,.46-.32l.4-.32.38-.34c.13-.11.25-.23.36-.35s.23-.24.34-.36a8.49,8.49,0,0,0,.62-.77,8.08,8.08,0,0,1-.85.47Zm-1.69,2Z"/><path d="M5.41,41.1c.54-.19.28-1.78.28-2.9s-1.44-3-2.35-3.61-1.93,2.09-1.93,2.09c1.18-1.92,1.83-1.1,2.33-.51a3.36,3.36,0,0,1,.44.73A1.81,1.81,0,0,0,2.64,38s1.05-1.09,1.88-.05a2.69,2.69,0,0,1-.72,2.64c-1.25,1.12.54,4,.91,4.22s.07,1.42.72,1.79c.28.16,0-.66.15-1.36a2.79,2.79,0,0,0-.75-2C4.46,42.89,4.82,41.31,5.41,41.1Z"/><path d="M14.86,30l1.58.25c.61.09,1.3.19,2.05.28s1.57.19,2.44.28l1.33.13,1.39.12,1.44.1.74,0,.74,0c1,0,2,.08,3,.11s2,0,3,0l1.48,0,1.45-.06c.48,0,.94,0,1.4-.08l1.34-.1c.87-.07,1.69-.17,2.44-.26l1.08-.15,1-.16.85-.15.72-.14,1-.23.35-.08-1.38.2-.73.09-.85.1-1,.1-1.08.09-1.18.08-1.26.08-1.33.06-.69,0-.7,0c-.94,0-1.92,0-2.92,0s-2,0-3,0-2,0-3-.09-2-.08-2.91-.14L21,30.34l-1.26-.09-1.18-.09c-1.51-.12-2.77-.23-3.65-.32l-1-.1-.36,0,.36.07Z"/><path d="M17.42,28l.27.05.76.14c.66.12,1.6.26,2.74.41.57.07,1.19.15,1.84.21l1,.1L25.1,29l1.09.08,1.12.07,2.28.09h1.15c.38,0,.76,0,1.14,0l1.12,0h.55l.54,0,1.06-.06.51,0,.5,0c.66-.07,1.28-.12,1.85-.2l1.55-.23c.23,0,.44-.08.64-.12l.54-.12,1-.22-1,.14-.55.08c-.2,0-.41.06-.65.08L38,28.56l-.22,0h-.22l-.45,0-1,.06-.5,0h-.51l-1.05,0-.54,0H31.88c-.38,0-.75,0-1.13,0H29.61l-2.27-.07c-.75,0-1.49-.06-2.2-.11l-1.05-.06-1-.07-1.84-.13-1.56-.13-1.2-.11L17.7,28Z"/></g></g></svg>