<svg xmlns="http://www.w3.org/2000/svg" viewBox="0 0 61.07 76.93"><title>Ресурс 13</title><g id="Слой_2" data-name="Слой 2"><g id="Слой_1-2" data-name="Слой 1"><path d="M45.7,76.22l1.33.11-1.33.11-3.51.22c-1.45.05-3.15.16-5,.18l-5.69.08-5.69-.08-5-.18-3.51-.22L16,76.34l1.33-.11L20.88,76l5-.18,4.37-.06a3.26,3.26,0,0,0,3.67,0l3.35.05c1.82,0,3.51.13,5,.18l3.51.22"/><path d="M50.63,25.78C47,22,44.46,17,45,14.59s1.52-4.27,2.1-4.13l1.18.27a18.54,18.54,0,0,0,1-3.27A25.27,25.27,0,0,0,50,4.12c-.05,0-4-1-8.7-2.1L32.77,0a30.22,30.22,0,0,0-.92,3.29c-.44,1.82-.76,3.32-.73,3.33s.6.16,1.19.3.59,2.23,0,4.63-5.1,5.77-10,7.46c0,0-18,6.17-21.43,20.46A30.67,30.67,0,0,0,23.55,76.42l1.28.27,4.21,0,7.44,0a30.6,30.6,0,0,0,24-23C63.91,39.42,50.63,25.78,50.63,25.78Zm6.83,30.51a21.82,21.82,0,0,1-2.78,6.62,22.14,22.14,0,0,1-1.35,1.91c-6.31,8-18,11.57-29.06,8.92S4.34,62.27,2.32,52.11h0a23,23,0,0,1-.42-3.54,21.94,21.94,0,0,1,.58-6l.1-.42a3.1,3.1,0,0,1,1.27-.91A4.08,4.08,0,0,1,5.48,41a4.24,4.24,0,0,1,2,.56c1.64,1,8.1,4,10.53,6.85l2.76,2.06a20.66,20.66,0,0,0,10.15,4.32c.54.06,1.09.1,1.65.11l.82,0a4.61,4.61,0,0,1,2.93.68l.78.36c4.25,1.93,8.39,1,12.55-.31L52,54.88c2.65-1.44,5.16-1,5.6,1Z"/><path d="M36.36,38.09a30.38,30.38,0,0,1-11.65,0l4.21,0,7.44,0"/><path d="M35.19,37.21c.35,1.71-1.47,3.49-4.17,3.49s-5.06-.76-5.18-1.92,1.8-1.83,4.31-2.33,4.7-.92,5,.76"/><path d="M32.4,37.46a1.76,1.76,0,0,1-1.32,2.25,2.24,2.24,0,0,1-2.45-.86c-.24-.68.41-1.22,1.42-1.58s2-.63,2.35.18"/></g></g></svg>