<svg xmlns="http://www.w3.org/2000/svg" viewBox="0 0 49.64 91"><title>Ресурс 10</title><g id="Слой_2" data-name="Слой 2"><g id="Слой_14" data-name="Слой 14"><path d="M43.79,91H5.86A5.85,5.85,0,0,1,.31,83.27L18.85,28.46V21.7h-.12a1.66,1.66,0,0,1,0-3.32H30.92a1.66,1.66,0,0,1,1.66,1.57,1.22,1.22,0,0,1-.13,1.1A1.7,1.7,0,0,1,31,21.7h-.22v6.76L49.33,83.27A5.85,5.85,0,0,1,43.79,91ZM19.85,28.43a.49.49,0,0,1,0,.24L1.26,83.6A4.85,4.85,0,0,0,5.86,90H43.79a4.85,4.85,0,0,0,4.6-6.41L29.81,28.67a.49.49,0,0,1,0-.26V21.2a.5.5,0,0,1,.5-.5h.64c.4,0,.61-.11.69-.22s.06-.09,0-.25a.5.5,0,0,1,0-.19.66.66,0,0,0-.66-.66H18.72a.66.66,0,0,0,0,1.32h.63a.5.5,0,0,1,.5.5v7.23Z"/><path d="M22,21.7H18.72a.5.5,0,1,1,0-1H22a.5.5,0,0,1,0,1Z"/><path d="M24.35,16.1a4.51,4.51,0,1,1,4.51-4.51A4.52,4.52,0,0,1,24.35,16.1Zm0-8a3.51,3.51,0,1,0,3.51,3.51A3.52,3.52,0,0,0,24.35,8.08Z"/><path d="M25.94,3.23a1.62,1.62,0,1,1,1.62-1.62A1.62,1.62,0,0,1,25.94,3.23Zm0-2.23a.61.61,0,1,0,.62.61A.62.62,0,0,0,25.94,1Z"/><path d="M31.3,7.47a2.62,2.62,0,1,1,2.62-2.62A2.62,2.62,0,0,1,31.3,7.47Zm0-4.24a1.62,1.62,0,1,0,1.62,1.62A1.62,1.62,0,0,0,31.3,3.23Z"/><path d="M27.13,49.65H22.52a.5.5,0,0,1,0-1h4.61a.5.5,0,0,1,0,1Z"/><path d="M27.13,56.43H22.52a.5.5,0,0,1,0-1h4.61a.5.5,0,1,1,0,1Z"/><path d="M27.13,63.21H22.52a.5.5,0,1,1,0-1h4.61a.5.5,0,0,1,0,1Z"/><path d="M27.13,70H22.52a.5.5,0,0,1,0-1h4.61a.5.5,0,1,1,0,1Z"/><path d="M27.13,76.76H22.52a.5.5,0,0,1,0-1h4.61a.5.5,0,1,1,0,1Z"/><path d="M27.13,83.54H22.52a.5.5,0,0,1,0-1h4.61a.5.5,0,1,1,0,1Z"/></g></g></svg>