<svg xmlns="http://www.w3.org/2000/svg" viewBox="0 0 83.95 69"><title>Ресурс 9</title><g id="Слой_2" data-name="Слой 2"><g id="Слой_6" data-name="Слой 6"><path d="M0,0V39H2c14.63,0,23,10.2,23,28v2H59V67c0-17.78,8.35-28,22.92-28h2V0ZM79.95,4v7.17H4V4ZM27.11,18.59c2.17,2.28,4.53,7.39,4.28,13-.18,4-1.78,9.44-8.12,13.49ZM4,35.08V13.17H25.88l-4.33,30C17.29,38.31,11.35,35.5,4,35.08ZM55.06,65H29c-.25-7.24-1.89-13.34-4.73-18.12,7.14-4.5,8.94-10.64,9.14-15.15.29-6.6-2.79-13.2-5.94-15.5l.44-3.07H56.29l4.59,32C57.36,50.18,55.34,56.87,55.06,65Zm7.53-22L58.31,13.17H79.95V35.08C72.69,35.5,66.81,38.27,62.58,43Z"/></g></g></svg>