<svg xmlns="http://www.w3.org/2000/svg" viewBox="0 0 61.09 86.78"><title>Ресурс 1</title><g id="Слой_2" data-name="Слой 2"><g id="Слой_3" data-name="Слой 3"><path d="M54.23,19.7a27.36,27.36,0,0,0-13.18-8.27c0-.32,0-.64,0-1a10.47,10.47,0,1,0-20.94,0c0,.33,0,.65,0,1A27.59,27.59,0,0,0,7,19.7,28.38,28.38,0,0,0,.23,42.3L1.81,55.24C3.92,72.63,16.74,86.78,30.38,86.78s26.54-14.13,28.77-31.5l1.67-13A28.21,28.21,0,0,0,54.23,19.7ZM21.34,15.27a10.46,10.46,0,0,0,18.59,0,23.41,23.41,0,0,1,11.3,7.07c.47.53.9,1.09,1.32,1.66L48.42,28.6l-9-9.76-9,9.72L22.12,18.8l-9.33,9.83L8.62,24c.43-.58.87-1.15,1.35-1.69A23.64,23.64,0,0,1,21.34,15.27ZM56.86,41.78l-1.67,13c-2,15.44-13.11,28-24.81,28s-22.73-12.57-24.6-28L4.2,41.82A25.23,25.23,0,0,1,6.46,27.61l6.27,6.89L22,24.77l8.4,9.81,9.07-9.84,9,9.8,6.24-7A25.09,25.09,0,0,1,56.86,41.78Z"/><path d="M27.94,51.22c2.24-3.88-.19-9.34-5.53-12.43a14,14,0,0,0-6.83-1.95c-3,0-5.46,1.23-6.7,3.37-2.24,3.88.19,9.34,5.53,12.43a14,14,0,0,0,6.83,1.95C24.26,54.59,26.7,53.36,27.94,51.22Zm-15.59-9a3.57,3.57,0,0,1,3.23-1.37,9.91,9.91,0,0,1,4.83,1.41c3.57,2.06,5,5.33,4.06,7a3.57,3.57,0,0,1-3.23,1.37,9.92,9.92,0,0,1-4.83-1.41C12.84,47.12,11.4,43.86,12.35,42.22Z"/><path d="M45.68,36.85a14,14,0,0,0-6.83,1.95c-5.34,3.08-7.77,8.54-5.53,12.43C34.56,53.37,37,54.59,40,54.59h0a14,14,0,0,0,6.83-1.95c5.34-3.08,7.77-8.54,5.53-12.43C51.14,38.08,48.7,36.85,45.68,36.85Zm-.83,12.34A9.93,9.93,0,0,1,40,50.59a3.56,3.56,0,0,1-3.23-1.37c-.95-1.64.49-4.9,4.06-7a9.92,9.92,0,0,1,4.83-1.41,3.56,3.56,0,0,1,3.23,1.37C49.86,43.86,48.42,47.12,44.85,49.18Z"/><path d="M30.63,60c-6.73,0-12,4-12,9s5.27,9,12,9,12-4,12-9S37.36,60,30.63,60Zm0,14c-4.34,0-8-2.29-8-5s3.66-5,8-5,8,2.29,8,5S35,74,30.63,74Z"/></g></g></svg>