<svg xmlns="http://www.w3.org/2000/svg" viewBox="0 0 50 81.99"><title>Ресурс 8</title><g id="Слой_2" data-name="Слой 2"><g id="Слой_7" data-name="Слой 7"><path d="M44.22,51.25l-2.89-3.09L34.73,46l-3.23,0,3.59-1.16,5.34-7.45V33a1,1,0,0,0-2,0v3.72l-4.58,6.39L27.9,45l4.48-4.71-1.08-9.6L28.2,25.5a1,1,0,0,0-1.72,1l2.89,4.86.92,8.25-3.37,3.54a2.43,2.43,0,0,0-3.84,0l-3.37-3.54.92-8.25,2.89-4.86a1,1,0,0,0-1.72-1L18.7,30.73l-1.08,9.6L22.1,45l-5.93-1.92-4.58-6.39V33a1,1,0,1,0-2,0v4.36l5.34,7.45L18.41,46H15.59l-6.91,2.2L5.78,51.25a1,1,0,1,0,1.46,1.37L9.78,49.9l6-1.95h6.15a5.4,5.4,0,0,0-2.08,3l-5.52,5-1.86,7.54,1.21,6.64a1,1,0,0,0,1,.82l.18,0a1,1,0,0,0,.8-1.16L14.47,63.5,16.08,57l3.67-3.31a5.41,5.41,0,0,0,10.51,0L33.92,57l1.61,6.53-1.13,6.21a1,1,0,0,0,.8,1.16l.18,0a1,1,0,0,0,1-.82l1.21-6.64-1.86-7.54-5.52-5a5.39,5.39,0,0,0-2.08-3h6.15l6,1.95,2.54,2.72a1,1,0,1,0,1.46-1.37Z"/><path d="M43.9,16H46V0H4V16H6.1A13,13,0,0,0,0,27V69A13,13,0,0,0,13,82H37A13,13,0,0,0,50,69V27A13,13,0,0,0,43.9,16ZM8,4H42v8H8ZM46,69a9,9,0,0,1-9,9H13a9,9,0,0,1-9-9V27a9,9,0,0,1,9-9H37a9,9,0,0,1,9,9Z"/></g></g></svg>